<svg width="93" height="25" viewBox="0 0 93 25" fill="none" xmlns="http://www.w3.org/2000/svg">
<g clip-path="url(#clip0_4_487)">
<mask id="mask0_4_487" style="mask-type:luminance" maskUnits="userSpaceOnUse" x="0" y="0" width="93" height="25">
<path d="M92.7668 0.522766H0.83606V24.9126H92.7668V0.522766Z" fill="white"/>
</mask>
<g mask="url(#mask0_4_487)">
<path fill-rule="evenodd" clip-rule="evenodd" d="M11.0814 16.7265C10.5556 16.6366 10.0669 16.3899 9.67535 16.0156C9.28669 15.6413 9.01234 15.1567 8.89231 14.6256C8.77228 14.0917 8.80657 13.5345 8.99519 13.0238C9.18381 12.5131 9.51532 12.0691 9.94971 11.7499C10.3841 11.4307 10.9014 11.2508 11.4329 11.2334C11.9673 11.216 12.4932 11.3611 12.9476 11.6484C13.402 11.9385 13.7592 12.3593 13.9793 12.8555C14.1993 13.3546 14.2708 13.9089 14.1822 14.4486C14.065 15.1712 13.6706 15.8183 13.0905 16.2448C12.5103 16.6714 11.7873 16.8455 11.0814 16.7265ZM9.66964 0.627238C9.99543 0.685274 10.2841 0.870991 10.4755 1.14666C10.667 1.42234 10.7442 1.76475 10.6899 2.09846C10.3098 4.40251 9.91827 6.72686 9.53532 9.04832C10.2812 8.73492 11.0871 8.60144 11.8902 8.66238C12.6932 8.72332 13.4734 8.97287 14.1679 9.39364C14.8623 9.8144 15.451 10.3948 15.8883 11.0883C16.3255 11.7818 16.5999 12.5711 16.6885 13.3923C16.7771 14.2136 16.6799 15.0435 16.4027 15.8212C16.1255 16.596 15.6768 17.2953 15.0909 17.864C14.5051 18.4328 13.7992 18.8536 13.0276 19.0944C12.256 19.3353 11.4415 19.3875 10.647 19.2511C9.52389 19.0625 8.49507 18.4966 7.7206 17.6435C5.08567 20.0433 2.49362 18.7491 1.5734 17.0428C0.77892 15.5542 0.836076 13.8102 1.099 12.1678C1.35906 10.6066 1.94777 9.12667 2.82513 7.82375C3.70248 6.52083 4.84847 5.43265 6.18022 4.63465L5.48291 8.83649C4.17974 10.4354 3.03661 13.5461 3.82251 15.5629C4.21975 16.5727 5.81442 16.1143 5.92873 15.4526C6.68892 10.8242 7.46339 6.28579 8.22643 1.6748C8.28359 1.34109 8.46649 1.0422 8.73798 0.847776C9.00948 0.653354 9.34385 0.575005 9.66964 0.633042V0.627238ZM12.0359 3.16053C12.456 3.18084 12.8733 3.22727 13.2877 3.29981C14.9052 3.57549 16.437 4.2342 17.763 5.22372C19.0891 6.21324 20.1722 7.50165 20.9266 8.99319C21.6811 10.4847 22.0898 12.1359 22.1155 13.816C22.1412 15.4962 21.7869 17.1589 21.0781 18.6737C20.3694 20.1884 19.3263 21.5145 18.0317 22.5447C16.7371 23.5748 15.2281 24.2858 13.6192 24.6137C12.0131 24.9445 10.3527 24.8865 8.76942 24.4454C7.18618 24.0043 5.72869 23.1918 4.50268 22.0746C3.1995 20.8007 5.08853 18.99 6.38027 20.0607C7.29478 20.8761 8.38361 21.4652 9.55818 21.7786C10.7328 22.092 11.9616 22.121 13.1505 21.8657C14.3393 21.6103 15.4539 21.0764 16.4056 20.3045C17.3572 19.5326 18.1231 18.546 18.6432 17.4201C19.1605 16.2942 19.4177 15.0609 19.392 13.8189C19.3663 12.574 19.0605 11.3524 18.4975 10.2497C17.9345 9.14698 17.1314 8.19228 16.1483 7.46393C15.1653 6.73267 14.0307 6.24516 12.8333 6.04203C12.4189 5.96949 12.0016 5.92886 11.5844 5.92306L12.0331 3.16053H12.0359Z" fill="#FDB62C"/>
<path fill-rule="evenodd" clip-rule="evenodd" d="M33.9984 10.5457C34.5185 10.5399 35.0329 10.6327 35.5187 10.8242C35.9617 10.9983 36.3532 11.2856 36.6562 11.6571C36.9705 12.0633 37.1877 12.5421 37.2849 13.0528C37.4106 13.6941 37.4163 14.3558 37.302 15C37.2077 15.6848 37.002 16.3493 36.6962 16.9645C36.419 17.5013 36.0446 17.9772 35.593 18.369C35.1501 18.7549 34.6357 19.0451 34.0812 19.2279C33.4868 19.431 32.8667 19.5326 32.2408 19.5268C31.6578 19.5413 31.0777 19.4543 30.5232 19.2714C30.1089 19.138 29.7202 18.9348 29.3687 18.6708C29.1743 18.5315 29.0172 18.3429 28.9114 18.1252C28.8228 17.9018 28.8 17.658 28.8428 17.4201L30.306 7.64674C30.4432 7.60032 30.5833 7.5684 30.7261 7.55389C30.9262 7.52197 31.1291 7.50746 31.332 7.51326C31.6407 7.48424 31.9522 7.56259 32.2094 7.7425C32.3837 7.8963 32.4351 8.16907 32.3751 8.55792L32.0093 11.0245C32.2951 10.8794 32.5952 10.7662 32.9038 10.6908C33.2582 10.5979 33.624 10.5515 33.9898 10.5544V10.5428L33.9984 10.5457ZM33.3525 12.3448C33.0524 12.3448 32.7552 12.397 32.4751 12.5073C32.2179 12.6002 31.9722 12.7191 31.7378 12.8642L31.0634 17.3214C31.2463 17.4375 31.4435 17.5274 31.6492 17.5942C31.9322 17.6928 32.2294 17.7393 32.5266 17.7306C32.8352 17.7393 33.141 17.6841 33.4268 17.5681C33.7126 17.452 33.9726 17.2808 34.1927 17.0602C34.6585 16.6192 34.9586 15.9401 35.0872 15.0203C35.2301 14.0917 35.1358 13.4214 34.8157 12.989C34.6442 12.7743 34.4242 12.6031 34.1756 12.4928C33.9269 12.3825 33.6554 12.3332 33.3868 12.3506H33.3525V12.3448ZM39.7912 10.8794L40.2113 10.7865C40.4056 10.7517 40.6 10.7343 40.7972 10.7343C41.1058 10.7053 41.4173 10.7865 41.6745 10.9664C41.766 11.0796 41.8288 11.2131 41.8574 11.3582C41.886 11.5033 41.8803 11.6513 41.8403 11.7934L40.72 19.2453L40.2999 19.3382C40.1056 19.373 39.9112 19.3904 39.714 19.3904C39.4054 19.4223 39.0939 19.3411 38.8367 19.1612C38.7452 19.048 38.6824 18.9145 38.6538 18.7694C38.6252 18.6243 38.6309 18.4763 38.6709 18.337L39.7912 10.8823V10.8794ZM40.0084 8.29675C40.057 7.94853 40.2313 7.63514 40.4971 7.4117C40.7629 7.17085 41.1058 7.04026 41.4602 7.04607C41.6202 7.03446 41.7802 7.06348 41.9289 7.12732C42.0775 7.19116 42.2089 7.28982 42.3147 7.4117C42.409 7.53357 42.4776 7.67867 42.5147 7.82956C42.5519 7.98336 42.5547 8.14005 42.529 8.29675C42.4776 8.64497 42.3061 8.96417 42.0489 9.19632C41.7831 9.43717 41.4402 9.56775 41.0858 9.56195C40.9258 9.57065 40.7629 9.54163 40.6143 9.47779C40.4656 9.41395 40.3313 9.31819 40.2227 9.19632C40.1227 9.07154 40.0513 8.92645 40.0141 8.77265C39.977 8.61595 39.9741 8.45345 40.0084 8.29675ZM49.2849 13.8247C49.3592 13.314 49.2849 12.9252 49.0277 12.7017C48.7191 12.4435 48.3218 12.3158 47.9246 12.3448C47.3273 12.3332 46.7357 12.4812 46.2099 12.7714L45.2411 19.2279L44.8067 19.3208C44.6124 19.3556 44.418 19.373 44.2208 19.373C43.9122 19.4049 43.6007 19.3237 43.3435 19.1438C43.2492 19.0335 43.1834 18.9 43.152 18.7549C43.1206 18.6098 43.1263 18.4618 43.1663 18.3196L44.0294 12.5943C44.0579 12.3419 44.1522 12.0981 44.3009 11.895C44.4752 11.6919 44.6838 11.5178 44.9153 11.3843C45.364 11.1144 45.8469 10.9142 46.3528 10.7836C46.9644 10.6182 47.5931 10.5399 48.2275 10.5457C49.4221 10.5457 50.3109 10.8155 50.8824 11.3524C51.454 11.8892 51.6626 12.6872 51.5055 13.7348L50.6824 19.2279C50.5909 19.2511 50.4509 19.2801 50.2594 19.3208C50.0651 19.3556 49.8708 19.373 49.6736 19.373C49.3649 19.402 49.0534 19.3237 48.7962 19.1438C48.7048 19.0306 48.6419 18.8971 48.6133 18.752C48.5847 18.6069 48.5905 18.4589 48.6305 18.3196L49.2821 13.8218L49.2849 13.8247ZM58.2957 18.5257C58.0185 18.6504 57.7327 18.7491 57.4412 18.8246C57.0868 18.9116 56.721 18.9551 56.3552 18.9493C55.8665 18.9551 55.3778 18.8768 54.912 18.7201C54.4833 18.5866 54.1004 18.337 53.8003 17.9975C53.4802 17.6319 53.263 17.185 53.1687 16.7033C53.043 16.0678 53.0373 15.412 53.1544 14.7736C53.243 14.1323 53.4402 13.5142 53.7403 12.9426C54.0032 12.4347 54.3633 11.985 54.7977 11.6193C55.2321 11.2537 55.7322 10.9809 56.2723 10.8155C56.8496 10.6327 57.4497 10.5428 58.0556 10.5457C58.6072 10.537 59.1559 10.6153 59.6846 10.7749C60.0847 10.8939 60.4619 11.0796 60.8048 11.3204C60.982 11.4452 61.1249 11.6106 61.2307 11.8022C61.3278 12.014 61.3564 12.2519 61.3135 12.4841L60.2647 19.3498C60.1961 19.9069 60.0075 20.4438 59.7074 20.9168C59.4388 21.3462 59.0873 21.7148 58.67 21.9962C58.2414 22.2835 57.7698 22.4925 57.2726 22.6172C56.7324 22.7478 56.178 22.8146 55.6207 22.8117C55.0977 22.8204 54.5776 22.7623 54.0689 22.6404C53.7403 22.5621 53.4231 22.4344 53.1316 22.2603C52.9715 22.1558 52.8429 22.005 52.7686 21.825C52.6943 21.6451 52.6714 21.4478 52.7086 21.2563C52.7372 21.0415 52.8143 20.8355 52.9344 20.6556C53.0344 20.5018 53.1687 20.3741 53.323 20.2813C53.6403 20.4931 53.9832 20.6614 54.3433 20.7833C54.7748 20.9284 55.2235 20.998 55.6779 20.9951C56.2695 21.0212 56.8582 20.879 57.3783 20.586C57.5984 20.4409 57.7841 20.2435 57.9213 20.0143C58.0585 19.7851 58.1442 19.5268 58.1699 19.2598L58.2957 18.5228V18.5257ZM56.9782 17.2053C57.2783 17.214 57.5755 17.1647 57.8556 17.0602C58.087 16.9761 58.31 16.8658 58.5214 16.7294L59.1273 12.6959C58.9615 12.5885 58.7815 12.5044 58.5957 12.4406C58.35 12.3651 58.0956 12.3303 57.8413 12.339C57.2468 12.3245 56.6667 12.5392 56.2152 12.9397C55.715 13.4272 55.4035 14.083 55.3378 14.7881C55.2721 15.1625 55.2635 15.5484 55.3121 15.9256C55.3521 16.1984 55.4578 16.4567 55.6207 16.6772C55.7693 16.8716 55.9751 17.0138 56.2066 17.0864C56.4524 17.1734 56.7096 17.214 56.9696 17.2111L56.9811 17.2053H56.9782ZM71.2245 15.029C71.1302 15.679 70.9301 16.3087 70.6386 16.8919C70.3643 17.4259 69.9985 17.9076 69.5612 18.3109C69.1326 18.7027 68.6353 19.0074 68.098 19.2105C67.5207 19.4165 66.9092 19.5181 66.2976 19.5094C65.7146 19.5239 65.1345 19.4223 64.5886 19.2105C64.1199 19.0219 63.7055 18.7114 63.3855 18.3109C63.0597 17.9018 62.8368 17.423 62.731 16.9065C62.611 16.2826 62.6081 15.6442 62.7167 15.0203C62.8053 14.3703 63.0025 13.7377 63.3026 13.1573C63.8427 12.0865 64.7601 11.2653 65.8661 10.862C66.4376 10.6472 67.0406 10.5399 67.6493 10.5457C68.2266 10.5341 68.7982 10.6385 69.3355 10.8591C69.807 11.0506 70.2214 11.3611 70.5443 11.7586C70.8758 12.1678 71.1045 12.6524 71.2074 13.1718C71.3245 13.7812 71.336 14.4051 71.2331 15.0174L71.2245 15.029ZM67.3664 12.3274C67.0692 12.3216 66.772 12.3796 66.4976 12.5015C66.2233 12.6234 65.9775 12.8033 65.7803 13.0325C65.3116 13.5926 65.0201 14.2832 64.943 15.0174C64.8115 15.885 64.8944 16.5553 65.1745 17.0167C65.3231 17.2518 65.5288 17.4375 65.7746 17.5623C66.0204 17.687 66.2919 17.7364 66.5634 17.7132C66.8634 17.719 67.1635 17.6609 67.4379 17.539C67.7151 17.4172 67.9609 17.2373 68.1638 17.008C68.6267 16.4451 68.9125 15.7515 68.984 15.0174C69.1183 14.1642 69.0354 13.5026 68.7439 13.0325C68.601 12.7975 68.3981 12.6089 68.1552 12.4841C67.9151 12.3593 67.6465 12.3042 67.375 12.3274H67.3664ZM74.6996 19.2279L74.2795 19.3208C74.0852 19.3556 73.8909 19.373 73.6937 19.373C73.385 19.4049 73.0735 19.3237 72.8163 19.1438C72.7249 19.0306 72.662 18.8971 72.6334 18.752C72.6048 18.6069 72.6105 18.4589 72.6506 18.3196L74.2509 7.65255C74.3881 7.60612 74.531 7.5742 74.6768 7.55969C74.8711 7.52777 75.0654 7.51326 75.2626 7.51907C75.5713 7.49005 75.8828 7.5713 76.14 7.74831C76.3029 7.90211 76.3543 8.17488 76.2972 8.56372L74.7025 19.2308L74.6996 19.2279ZM80.4753 17.8002C80.7925 17.806 81.1069 17.7741 81.4155 17.7045C81.6413 17.6638 81.8614 17.5826 82.0614 17.4665L82.3529 15.4875L80.6439 15.65C80.2581 15.6703 79.878 15.7718 79.5322 15.9489C79.4008 16.0301 79.2893 16.1433 79.2064 16.2797C79.1236 16.4131 79.075 16.5669 79.0578 16.7236C79.0264 16.8687 79.0321 17.0196 79.0778 17.1589C79.1236 17.2982 79.2036 17.4259 79.3122 17.5216C79.6608 17.7451 80.0724 17.8466 80.4839 17.8031H80.4753V17.8002ZM81.4956 10.5457C82.6301 10.5457 83.5046 10.7923 84.1105 11.2914C84.7163 11.7934 84.9335 12.5653 84.7821 13.6129L84.1619 17.7306C84.1391 17.983 84.0362 18.2239 83.8704 18.4125C83.6932 18.5837 83.496 18.7317 83.2846 18.8536C82.873 19.077 82.4301 19.2424 81.9728 19.3382C81.4041 19.4601 80.8268 19.521 80.2467 19.5152C79.075 19.5152 78.1976 19.2859 77.6118 18.8275C77.0259 18.369 76.7801 17.6783 76.9144 16.7701C76.9545 16.4102 77.0659 16.0649 77.2402 15.7486C77.4146 15.4352 77.6489 15.1596 77.929 14.939C78.592 14.4747 79.3665 14.2078 80.1695 14.1613L82.593 13.906L82.6415 13.6071C82.6901 13.4243 82.6844 13.2327 82.6244 13.0557C82.5644 12.8787 82.4558 12.722 82.31 12.606C81.9214 12.3622 81.4698 12.249 81.0154 12.281C80.5582 12.281 80.1066 12.339 79.6637 12.4522C79.2493 12.5566 78.8435 12.6988 78.452 12.8787C78.3376 12.7714 78.2491 12.6408 78.1862 12.4957C78.1262 12.3274 78.109 12.1446 78.1376 11.9676C78.1662 11.7528 78.2548 11.5526 78.3948 11.3901C78.5577 11.2102 78.7578 11.0709 78.9807 10.978C79.3665 10.8358 79.7666 10.7343 80.1752 10.6791C80.6125 10.6037 81.0526 10.566 81.4956 10.5689L81.5013 10.5457H81.4956ZM88.2972 19.2308L87.8657 19.3237C87.6713 19.3585 87.477 19.3759 87.2798 19.3759C86.9712 19.4049 86.6597 19.3266 86.4025 19.1467C86.311 19.0335 86.2453 18.9 86.2167 18.7549C86.1853 18.6098 86.191 18.4618 86.231 18.3196L87.0855 12.6698C87.1169 12.3796 87.2284 12.1068 87.4084 11.8805C87.6056 11.6484 87.8399 11.4539 88.1057 11.3117C88.5515 11.068 89.0259 10.8823 89.5175 10.7604C90.0919 10.6124 90.6806 10.5399 91.2751 10.5486C92.3782 10.5486 92.8754 10.8968 92.7754 11.6019C92.7497 11.7644 92.6983 11.924 92.6268 12.0691C92.5639 12.1997 92.4896 12.3216 92.401 12.4347C91.6894 12.3042 90.9578 12.3245 90.252 12.4957C89.9147 12.574 89.5889 12.6959 89.2803 12.8526L88.3001 19.2308H88.2972Z" fill="white"/>
</g>
</g>
<defs>
<clipPath id="clip0_4_487">
<rect width="91.9308" height="24.3898" fill="white" transform="translate(0.83606 0.522766)"/>
</clipPath>
</defs>
</svg>
